<?xml version="1.0" encoding="UTF-8" standalone="no"?><svg xmlns="http://www.w3.org/2000/svg" xmlns:xlink="http://www.w3.org/1999/xlink" contentScriptType="application/ecmascript" contentStyleType="text/css" height="772px" preserveAspectRatio="none" style="width:674px;height:772px;" version="1.1" viewBox="0 0 674 772" width="674px" zoomAndPan="magnify"><defs><filter height="300%" id="f19zznbbduxfr" width="300%" x="-1" y="-1"><feGaussianBlur result="blurOut" stdDeviation="2.0"/><feColorMatrix in="blurOut" result="blurOut2" type="matrix" values="0 0 0 0 0 0 0 0 0 0 0 0 0 0 0 0 0 0 .4 0"/><feOffset dx="4.0" dy="4.0" in="blurOut2" result="blurOut3"/><feBlend in="SourceGraphic" in2="blurOut3" mode="normal"/></filter></defs><g><text fill="#000000" font-family="sans-serif" font-size="18" lengthAdjust="spacing" textLength="290" x="191" y="26.708">Middleware Harvester Workflow</text><ellipse cx="334" cy="40.9531" fill="#000000" filter="url(#f19zznbbduxfr)" rx="10" ry="10" style="stroke:none;stroke-width:1.0;"/><rect fill="#FEFECE" filter="url(#f19zznbbduxfr)" height="33.9688" rx="12.5" ry="12.5" style="stroke:#A80036;stroke-width:1.5;" width="124" x="272" y="70.9531"/><text fill="#000000" font-family="sans-serif" font-size="12" lengthAdjust="spacing" textLength="104" x="282" y="92.0918">Load config.yaml</text><rect fill="#FFFFFF" filter="url(#f19zznbbduxfr)" height="530.4766" style="stroke:#000000;stroke-width:2.0;" width="646" x="11" y="114.9219"/><path d="M207,114.9219 L207,124.2188 L197,134.2188 L11,134.2188 " fill="none" style="stroke:#000000;stroke-width:2.0;"/><text fill="#000000" font-family="sans-serif" font-size="14" lengthAdjust="spacing" textLength="186" x="14" y="128.917">Per repository (concurrent)</text><polygon fill="#FEFECE" filter="url(#f19zznbbduxfr)" points="288,151.2188,380,151.2188,392,163.2188,380,175.2188,288,175.2188,276,163.2188,288,151.2188" style="stroke:#A80036;stroke-width:1.5;"/><text fill="#000000" font-family="sans-serif" font-size="11" lengthAdjust="spacing" textLength="92" x="288" y="167.0269">repository type?</text><rect fill="#FEFECE" filter="url(#f19zznbbduxfr)" height="47.9375" rx="12.5" ry="12.5" style="stroke:#A80036;stroke-width:1.5;" width="230" x="21" y="198.0234"/><text fill="#000000" font-family="sans-serif" font-size="12" lengthAdjust="spacing" textLength="210" x="31" y="219.1621">Fetch records from CSW endpoint</text><text fill="#000000" font-family="sans-serif" font-size="12" lengthAdjust="spacing" textLength="173" x="31" y="233.1309">(ISO 19139 XML, paginated)</text><rect fill="#FFFFFF" filter="url(#f19zznbbduxfr)" height="136.2344" style="stroke:#000000;stroke-width:2.0;" width="219" x="26.5" y="255.9609"/><path d="M205.5,255.9609 L205.5,265.2578 L195.5,275.2578 L26.5,275.2578 " fill="none" style="stroke:#000000;stroke-width:2.0;"/><text fill="#000000" font-family="sans-serif" font-size="14" lengthAdjust="spacing" textLength="169" x="29.5" y="269.9561">Per dataset (concurrent)</text><rect fill="#FEFECE" filter="url(#f19zznbbduxfr)" height="33.9688" rx="12.5" ry="12.5" style="stroke:#A80036;stroke-width:1.5;" width="91" x="90.5" y="292.2578"/><text fill="#000000" font-family="sans-serif" font-size="12" lengthAdjust="spacing" textLength="71" x="100.5" y="313.3965">Map to ARC</text><rect fill="#FEFECE" filter="url(#f19zznbbduxfr)" height="33.9688" rx="12.5" ry="12.5" style="stroke:#A80036;stroke-width:1.5;" width="199" x="36.5" y="346.2266"/><text fill="#000000" font-family="sans-serif" font-size="12" lengthAdjust="spacing" textLength="179" x="46.5" y="367.3652">Serialize to RO-Crate JSON-LD</text><rect fill="#FEFECE" filter="url(#f19zznbbduxfr)" height="47.9375" rx="12.5" ry="12.5" style="stroke:#A80036;stroke-width:1.5;" width="249" x="334.5" y="198.0234"/><text fill="#000000" font-family="sans-serif" font-size="12" lengthAdjust="spacing" textLength="140" x="344.5" y="219.1621">Discover dataset URLs</text><text fill="#000000" font-family="sans-serif" font-size="12" lengthAdjust="spacing" textLength="229" x="344.5" y="233.1309">(XML Sitemap / MyCoRe Solr request)</text><rect fill="#FFFFFF" filter="url(#f19zznbbduxfr)" height="251.1719" style="stroke:#000000;stroke-width:2.0;" width="376" x="271" y="255.9609"/><path d="M450,255.9609 L450,265.2578 L440,275.2578 L271,275.2578 " fill="none" style="stroke:#000000;stroke-width:2.0;"/><text fill="#000000" font-family="sans-serif" font-size="14" lengthAdjust="spacing" textLength="169" x="274" y="269.9561">Per dataset (concurrent)</text><rect fill="#FEFECE" filter="url(#f19zznbbduxfr)" height="33.9688" rx="12.5" ry="12.5" style="stroke:#A80036;stroke-width:1.5;" width="194" x="362" y="292.2578"/><text fill="#000000" font-family="sans-serif" font-size="12" lengthAdjust="spacing" textLength="174" x="372" y="313.3965">Fetch dataset landing page</text><rect fill="#FEFECE" filter="url(#f19zznbbduxfr)" height="33.9688" rx="12.5" ry="12.5" style="stroke:#A80036;stroke-width:1.5;" width="356" x="281" y="346.2266"/><text fill="#000000" font-family="sans-serif" font-size="12" lengthAdjust="spacing" textLength="336" x="291" y="367.3652">Parse embedded schema.org metadata to RDF graph</text><rect fill="#FEFECE" filter="url(#f19zznbbduxfr)" height="33.9688" rx="12.5" ry="12.5" style="stroke:#A80036;stroke-width:1.5;" width="91" x="413.5" y="407.1953"/><text fill="#000000" font-family="sans-serif" font-size="12" lengthAdjust="spacing" textLength="71" x="423.5" y="428.334">Map to ARC</text><rect fill="#FEFECE" filter="url(#f19zznbbduxfr)" height="33.9688" rx="12.5" ry="12.5" style="stroke:#A80036;stroke-width:1.5;" width="199" x="359.5" y="461.1641"/><text fill="#000000" font-family="sans-serif" font-size="12" lengthAdjust="spacing" textLength="179" x="369.5" y="482.3027">Serialize to RO-Crate JSON-LD</text><polygon fill="#FEFECE" filter="url(#f19zznbbduxfr)" points="334,517.1328,334,517.1328,346,529.1328,334,541.1328,334,541.1328,322,529.1328,334,517.1328" style="stroke:#A80036;stroke-width:1.5;"/><rect fill="#FFFFFF" filter="url(#f19zznbbduxfr)" height="82.2656" style="stroke:#000000;stroke-width:2.0;" width="309" x="179.5" y="551.1328"/><path d="M429.5,551.1328 L429.5,560.4297 L419.5,570.4297 L179.5,570.4297 " fill="none" style="stroke:#000000;stroke-width:2.0;"/><text fill="#000000" font-family="sans-serif" font-size="14" lengthAdjust="spacing" textLength="240" x="182.5" y="565.1279">Per dataset (concurrent, pipelined)</text><rect fill="#FEFECE" filter="url(#f19zznbbduxfr)" height="33.9688" rx="12.5" ry="12.5" style="stroke:#A80036;stroke-width:1.5;" width="289" x="189.5" y="587.4297"/><text fill="#000000" font-family="sans-serif" font-size="12" lengthAdjust="spacing" textLength="269" x="199.5" y="608.5684">Upload RO-Crate JSON-LD to Middleware API</text><rect fill="#FEFECE" filter="url(#f19zznbbduxfr)" height="47.9375" rx="12.5" ry="12.5" style="stroke:#A80036;stroke-width:1.5;" width="140" x="264" y="665.3984"/><text fill="#000000" font-family="sans-serif" font-size="12" lengthAdjust="spacing" textLength="89" x="274" y="686.5371">Output Report</text><text fill="#000000" font-family="sans-serif" font-size="12" lengthAdjust="spacing" textLength="120" x="274" y="700.5059">(JSON-LD to stdout)</text><ellipse cx="334" cy="744.3359" fill="#FFFFFF" filter="url(#f19zznbbduxfr)" rx="11" ry="11" style="stroke:#000000;stroke-width:1.0;"/><ellipse cx="334" cy="744.3359" fill="#000000" rx="6" ry="6" style="stroke:#7F7F7F;stroke-width:1.0;"/><line style="stroke:#A80036;stroke-width:1.5;" x1="334" x2="334" y1="50.9531" y2="70.9531"/><polygon fill="#A80036" points="330,60.9531,334,70.9531,338,60.9531,334,64.9531" style="stroke:#A80036;stroke-width:1.0;"/><line style="stroke:#A80036;stroke-width:1.5;" x1="136" x2="136" y1="326.2266" y2="346.2266"/><polygon fill="#A80036" points="132,336.2266,136,346.2266,140,336.2266,136,340.2266" style="stroke:#A80036;stroke-width:1.0;"/><line style="stroke:#A80036;stroke-width:1.5;" x1="136" x2="136" y1="245.9609" y2="292.2578"/><polygon fill="#A80036" points="132,282.2578,136,292.2578,140,282.2578,136,286.2578" style="stroke:#A80036;stroke-width:1.0;"/><line style="stroke:#A80036;stroke-width:1.5;" x1="459" x2="459" y1="326.2266" y2="346.2266"/><polygon fill="#A80036" points="455,336.2266,459,346.2266,463,336.2266,459,340.2266" style="stroke:#A80036;stroke-width:1.0;"/><line style="stroke:#A80036;stroke-width:1.5;" x1="459" x2="459" y1="380.1953" y2="407.1953"/><polygon fill="#A80036" points="455,397.1953,459,407.1953,463,397.1953,459,401.1953" style="stroke:#A80036;stroke-width:1.0;"/><line style="stroke:#A80036;stroke-width:1.5;" x1="459" x2="459" y1="441.1641" y2="461.1641"/><polygon fill="#A80036" points="455,451.1641,459,461.1641,463,451.1641,459,455.1641" style="stroke:#A80036;stroke-width:1.0;"/><line style="stroke:#A80036;stroke-width:1.5;" x1="459" x2="459" y1="245.9609" y2="292.2578"/><polygon fill="#A80036" points="455,282.2578,459,292.2578,463,282.2578,459,286.2578" style="stroke:#A80036;stroke-width:1.0;"/><line style="stroke:#A80036;stroke-width:1.5;" x1="276" x2="136" y1="163.2188" y2="163.2188"/><line style="stroke:#A80036;stroke-width:1.5;" x1="136" x2="136" y1="163.2188" y2="198.0234"/><polygon fill="#A80036" points="132,188.0234,136,198.0234,140,188.0234,136,192.0234" style="stroke:#A80036;stroke-width:1.0;"/><text fill="#000000" font-family="sans-serif" font-size="11" lengthAdjust="spacing" textLength="39" x="136" y="184.4292">inspire</text><line style="stroke:#A80036;stroke-width:1.5;" x1="392" x2="459" y1="163.2188" y2="163.2188"/><line style="stroke:#A80036;stroke-width:1.5;" x1="459" x2="459" y1="163.2188" y2="198.0234"/><polygon fill="#A80036" points="455,188.0234,459,198.0234,463,188.0234,459,192.0234" style="stroke:#A80036;stroke-width:1.0;"/><text fill="#000000" font-family="sans-serif" font-size="11" lengthAdjust="spacing" textLength="70" x="459" y="184.4292">schema_org</text><line style="stroke:#A80036;stroke-width:1.5;" x1="136" x2="136" y1="380.1953" y2="529.1328"/><line style="stroke:#A80036;stroke-width:1.5;" x1="136" x2="322" y1="529.1328" y2="529.1328"/><polygon fill="#A80036" points="312,525.1328,322,529.1328,312,533.1328,316,529.1328" style="stroke:#A80036;stroke-width:1.0;"/><line style="stroke:#A80036;stroke-width:1.5;" x1="459" x2="459" y1="495.1328" y2="529.1328"/><line style="stroke:#A80036;stroke-width:1.5;" x1="459" x2="346" y1="529.1328" y2="529.1328"/><polygon fill="#A80036" points="356,525.1328,346,529.1328,356,533.1328,352,529.1328" style="stroke:#A80036;stroke-width:1.0;"/><line style="stroke:#A80036;stroke-width:1.5;" x1="334" x2="334" y1="541.1328" y2="587.4297"/><polygon fill="#A80036" points="330,577.4297,334,587.4297,338,577.4297,334,581.4297" style="stroke:#A80036;stroke-width:1.0;"/><line style="stroke:#A80036;stroke-width:1.5;" x1="334" x2="334" y1="104.9219" y2="151.2188"/><polygon fill="#A80036" points="330,141.2188,334,151.2188,338,141.2188,334,145.2188" style="stroke:#A80036;stroke-width:1.0;"/><line style="stroke:#A80036;stroke-width:1.5;" x1="334" x2="334" y1="621.3984" y2="665.3984"/><polygon fill="#A80036" points="330,655.3984,334,665.3984,338,655.3984,334,659.3984" style="stroke:#A80036;stroke-width:1.0;"/><line style="stroke:#A80036;stroke-width:1.5;" x1="334" x2="334" y1="713.3359" y2="733.3359"/><polygon fill="#A80036" points="330,723.3359,334,733.3359,338,723.3359,334,727.3359" style="stroke:#A80036;stroke-width:1.0;"/><!--MD5=[5d1c3f521e9d04f2871b765c921ff511]
@startuml Harvester_Workflow
title Middleware Harvester Workflow

start
:Load config.yaml;

partition "Per repository (concurrent)" {
  switch (repository type?)
  case (inspire)
    :Fetch records from CSW endpoint\n(ISO 19139 XML, paginated);
    partition "Per dataset (concurrent)" {
      :Map to ARC;
      :Serialize to RO-Crate JSON-LD;
    }
  case (schema_org)
    :Discover dataset URLs\n(XML Sitemap / MyCoRe Solr request);
    partition "Per dataset (concurrent)" {
      :Fetch dataset landing page;
      :Parse embedded schema.org metadata to RDF graph;
      :Map to ARC;
      :Serialize to RO-Crate JSON-LD;
    }
  endswitch

  partition "Per dataset (concurrent, pipelined)" {
    :Upload RO-Crate JSON-LD to Middleware API;
  }
}

:Output Report\n(JSON-LD to stdout);

stop

@enduml

PlantUML version 1.2021.00(Sun Jan 10 10:25:05 UTC 2021)
(MIT source distribution)
Java Runtime: OpenJDK Runtime Environment
JVM: OpenJDK 64-Bit Server VM
Default Encoding: UTF-8
Language: en
Country: US
--></g></svg>