<?xml version="1.0" encoding="UTF-8" standalone="no"?><svg xmlns="http://www.w3.org/2000/svg" xmlns:xlink="http://www.w3.org/1999/xlink" contentScriptType="application/ecmascript" contentStyleType="text/css" height="697px" preserveAspectRatio="none" style="width:1335px;height:697px;" version="1.1" viewBox="0 0 1335 697" width="1335px" zoomAndPan="magnify"><defs><filter height="300%" id="f1smoweqncmxb1" width="300%" x="-1" y="-1"><feGaussianBlur result="blurOut" stdDeviation="2.0"/><feColorMatrix in="blurOut" result="blurOut2" type="matrix" values="0 0 0 0 0 0 0 0 0 0 0 0 0 0 0 0 0 0 .4 0"/><feOffset dx="4.0" dy="4.0" in="blurOut2" result="blurOut3"/><feBlend in="SourceGraphic" in2="blurOut3" mode="normal"/></filter></defs><g><!--MD5=[40ce959e9f0ea8075c802ab97cb21734]
cluster geoCatalogues--><rect fill="#FFFFFF" filter="url(#f1smoweqncmxb1)" height="114" style="stroke:#000000;stroke-width:1.5;" width="167" x="1156" y="393"/><text fill="#000000" font-family="sans-serif" font-size="14" font-weight="bold" lengthAdjust="spacing" textLength="151" x="1164" y="407.9951">INSPIRE-based RDIs</text><!--MD5=[56dad74e36c2ca14ca063e626a34692e]
cluster schemaPortals--><rect fill="#FFFFFF" filter="url(#f1smoweqncmxb1)" height="114" style="stroke:#000000;stroke-width:1.5;" width="536" x="7" y="571"/><text fill="#000000" font-family="sans-serif" font-size="14" font-weight="bold" lengthAdjust="spacing" textLength="187" x="181.5" y="585.9951">Schema.org-based RDIs</text><!--MD5=[b17d9228c24390118ce9fa56ce22b1b1]
cluster harvesterPkg--><rect fill="#FFFFFF" filter="url(#f1smoweqncmxb1)" height="500" style="stroke:#000000;stroke-width:1.5;" width="964" x="168" y="7"/><text fill="#000000" font-family="sans-serif" font-size="14" font-weight="bold" lengthAdjust="spacing" textLength="174" x="563" y="21.9951">Middleware Harvester</text><!--MD5=[0494607b206e7fab5937d2c49003843f]
cluster inspirePlugin--><rect fill="#FFFFFF" filter="url(#f1smoweqncmxb1)" height="130" style="stroke:#000000;stroke-width:1.0;stroke-dasharray:7.0,7.0;" width="358" x="742" y="191"/><text fill="#000000" font-family="sans-serif" font-size="14" font-weight="bold" lengthAdjust="spacing" textLength="107" x="867.5" y="205.9951">Inspire Plugin</text><!--MD5=[1c721db0f8b6ba6a2003402cb719c078]
cluster schemaOrgPlugin--><rect fill="#FFFFFF" filter="url(#f1smoweqncmxb1)" height="130" style="stroke:#000000;stroke-width:1.0;stroke-dasharray:7.0,7.0;" width="502" x="200" y="191"/><text fill="#000000" font-family="sans-serif" font-size="14" font-weight="bold" lengthAdjust="spacing" textLength="147" x="377.5" y="205.9951">Schema.org Plugin</text><!--MD5=[2b9b9b93999b1569aa2677f6f3353e61]
entity csw--><polygon fill="#FFFFFF" filter="url(#f1smoweqncmxb1)" points="1171.5,438,1181.5,428,1282.5,428,1282.5,480.5938,1272.5,490.5938,1171.5,490.5938,1171.5,438" style="stroke:#808080;stroke-width:1.5;"/><line style="stroke:#808080;stroke-width:1.5;" x1="1272.5" x2="1282.5" y1="438" y2="428"/><line style="stroke:#808080;stroke-width:1.5;" x1="1171.5" x2="1272.5" y1="438" y2="438"/><line style="stroke:#808080;stroke-width:1.5;" x1="1272.5" x2="1272.5" y1="438" y2="490.5938"/><text fill="#000000" font-family="sans-serif" font-size="14" lengthAdjust="spacing" textLength="71" x="1186.5" y="460.9951">CSW 2.0.2</text><text fill="#000000" font-family="sans-serif" font-size="14" lengthAdjust="spacing" textLength="62" x="1186.5" y="477.292">endpoint</text><!--MD5=[365db5e2cff9806f47f096c4c31536aa]
entity sitemap--><polygon fill="#FFFFFF" filter="url(#f1smoweqncmxb1)" points="236,624.5,246,614.5,364,614.5,364,650.7969,354,660.7969,236,660.7969,236,624.5" style="stroke:#808080;stroke-width:1.5;"/><line style="stroke:#808080;stroke-width:1.5;" x1="354" x2="364" y1="624.5" y2="614.5"/><line style="stroke:#808080;stroke-width:1.5;" x1="236" x2="354" y1="624.5" y2="624.5"/><line style="stroke:#808080;stroke-width:1.5;" x1="354" x2="354" y1="624.5" y2="660.7969"/><text fill="#000000" font-family="sans-serif" font-size="14" lengthAdjust="spacing" textLength="88" x="251" y="647.4951">XML Sitemap</text><!--MD5=[3240a04984591bf821b83340f116676c]
entity mycoreSolr--><polygon fill="#FFFFFF" filter="url(#f1smoweqncmxb1)" points="399.5,616,409.5,606,526.5,606,526.5,658.5938,516.5,668.5938,399.5,668.5938,399.5,616" style="stroke:#808080;stroke-width:1.5;"/><line style="stroke:#808080;stroke-width:1.5;" x1="516.5" x2="526.5" y1="616" y2="606"/><line style="stroke:#808080;stroke-width:1.5;" x1="399.5" x2="516.5" y1="616" y2="616"/><line style="stroke:#808080;stroke-width:1.5;" x1="516.5" x2="516.5" y1="616" y2="668.5938"/><text fill="#000000" font-family="sans-serif" font-size="14" lengthAdjust="spacing" textLength="87" x="414.5" y="638.9951">MyCoRe Solr</text><text fill="#000000" font-family="sans-serif" font-size="14" lengthAdjust="spacing" textLength="62" x="414.5" y="655.292">endpoint</text><!--MD5=[c3071746ce3e9e218b3f409dfaea68dc]
entity schemaOrgDataset--><polygon fill="#FFFFFF" filter="url(#f1smoweqncmxb1)" points="23,616,33,606,201,606,201,658.5938,191,668.5938,23,668.5938,23,616" style="stroke:#808080;stroke-width:1.5;"/><line style="stroke:#808080;stroke-width:1.5;" x1="191" x2="201" y1="616" y2="606"/><line style="stroke:#808080;stroke-width:1.5;" x1="23" x2="191" y1="616" y2="616"/><line style="stroke:#808080;stroke-width:1.5;" x1="191" x2="191" y1="616" y2="668.5938"/><text fill="#000000" font-family="sans-serif" font-size="14" lengthAdjust="spacing" textLength="119" x="38" y="638.9951">HTML-embedded</text><text fill="#000000" font-family="sans-serif" font-size="14" lengthAdjust="spacing" textLength="138" x="38" y="655.292">schema.org dataset</text><!--MD5=[8b37c555d4e18eaf34bdb9821e2ad4fc]
entity orchestrator--><polygon fill="#87CEFA" filter="url(#f1smoweqncmxb1)" points="695.5,60.5,705.5,50.5,822.5,50.5,822.5,86.7969,812.5,96.7969,695.5,96.7969,695.5,60.5" style="stroke:#00008B;stroke-width:1.5;"/><line style="stroke:#00008B;stroke-width:1.5;" x1="812.5" x2="822.5" y1="60.5" y2="50.5"/><line style="stroke:#00008B;stroke-width:1.5;" x1="695.5" x2="812.5" y1="60.5" y2="60.5"/><line style="stroke:#00008B;stroke-width:1.5;" x1="812.5" x2="812.5" y1="60.5" y2="96.7969"/><text fill="#000000" font-family="sans-serif" font-size="14" lengthAdjust="spacing" textLength="87" x="710.5" y="83.4951">Orchestrator</text><!--MD5=[e52dab03c30cb702fad72055b46c5d5f]
entity apiClient--><polygon fill="#87CEFA" filter="url(#f1smoweqncmxb1)" points="917.5,52,927.5,42,1034.5,42,1034.5,94.5938,1024.5,104.5938,917.5,104.5938,917.5,52" style="stroke:#00008B;stroke-width:1.5;"/><line style="stroke:#00008B;stroke-width:1.5;" x1="1024.5" x2="1034.5" y1="52" y2="42"/><line style="stroke:#00008B;stroke-width:1.5;" x1="917.5" x2="1024.5" y1="52" y2="52"/><line style="stroke:#00008B;stroke-width:1.5;" x1="1024.5" x2="1024.5" y1="52" y2="104.5938"/><text fill="#000000" font-family="sans-serif" font-size="14" lengthAdjust="spacing" textLength="60" x="932.5" y="74.9951">ApiClient</text><text fill="#000000" font-family="sans-serif" font-size="14" lengthAdjust="spacing" textLength="77" x="932.5" y="91.292">(shared lib)</text><!--MD5=[cacd050357ad07da66aaa1fe6a87c1f0]
entity niceHttp--><polygon fill="#87CEFA" filter="url(#f1smoweqncmxb1)" points="260,438,270,428,398,428,398,480.5938,388,490.5938,260,490.5938,260,438" style="stroke:#00008B;stroke-width:1.5;"/><line style="stroke:#00008B;stroke-width:1.5;" x1="388" x2="398" y1="438" y2="428"/><line style="stroke:#00008B;stroke-width:1.5;" x1="260" x2="388" y1="438" y2="438"/><line style="stroke:#00008B;stroke-width:1.5;" x1="388" x2="388" y1="438" y2="490.5938"/><text fill="#000000" font-family="sans-serif" font-size="14" lengthAdjust="spacing" textLength="98" x="275" y="460.9951">NiceHttpClient</text><text fill="#000000" font-family="sans-serif" font-size="14" lengthAdjust="spacing" textLength="77" x="275" y="477.292">(shared lib)</text><!--MD5=[8942e9486721d1be611c0d2232a1903b]
entity cswClient--><polygon fill="#87CEFA" filter="url(#f1smoweqncmxb1)" points="766.5,244,776.5,234,881.5,234,881.5,286.5938,871.5,296.5938,766.5,296.5938,766.5,244" style="stroke:#00008B;stroke-width:1.5;"/><line style="stroke:#00008B;stroke-width:1.5;" x1="871.5" x2="881.5" y1="244" y2="234"/><line style="stroke:#00008B;stroke-width:1.5;" x1="766.5" x2="871.5" y1="244" y2="244"/><line style="stroke:#00008B;stroke-width:1.5;" x1="871.5" x2="871.5" y1="244" y2="296.5938"/><text fill="#000000" font-family="sans-serif" font-size="14" lengthAdjust="spacing" textLength="75" x="781.5" y="266.9951">CSW Client</text><text fill="#000000" font-family="sans-serif" font-size="14" lengthAdjust="spacing" textLength="62" x="781.5" y="283.292">(OWSLib)</text><!--MD5=[fcbc9907422c39784eceb8b7b69e39ec]
entity inspireMapper--><polygon fill="#87CEFA" filter="url(#f1smoweqncmxb1)" points="917,244,927,234,1057,234,1057,286.5938,1047,296.5938,917,296.5938,917,244" style="stroke:#00008B;stroke-width:1.5;"/><line style="stroke:#00008B;stroke-width:1.5;" x1="1047" x2="1057" y1="244" y2="234"/><line style="stroke:#00008B;stroke-width:1.5;" x1="917" x2="1047" y1="244" y2="244"/><line style="stroke:#00008B;stroke-width:1.5;" x1="1047" x2="1047" y1="244" y2="296.5938"/><text fill="#000000" font-family="sans-serif" font-size="14" lengthAdjust="spacing" textLength="94" x="932" y="266.9951">INSPIRE→ARC</text><text fill="#000000" font-family="sans-serif" font-size="14" lengthAdjust="spacing" textLength="100" x="932" y="283.292">Mapper (arctrl)</text><!--MD5=[74d5ea347c6349155ba1775614f9b358]
entity sitemapDiscovery--><polygon fill="#87CEFA" filter="url(#f1smoweqncmxb1)" points="223.5,244,233.5,234,330.5,234,330.5,286.5938,320.5,296.5938,223.5,296.5938,223.5,244" style="stroke:#00008B;stroke-width:1.5;"/><line style="stroke:#00008B;stroke-width:1.5;" x1="320.5" x2="330.5" y1="244" y2="234"/><line style="stroke:#00008B;stroke-width:1.5;" x1="223.5" x2="320.5" y1="244" y2="244"/><line style="stroke:#00008B;stroke-width:1.5;" x1="320.5" x2="320.5" y1="244" y2="296.5938"/><text fill="#000000" font-family="sans-serif" font-size="14" lengthAdjust="spacing" textLength="56" x="238.5" y="266.9951">Sitemap</text><text fill="#000000" font-family="sans-serif" font-size="14" lengthAdjust="spacing" textLength="67" x="238.5" y="283.292">Discovery</text><!--MD5=[24df5d46afcf004443f6407a11319227]
entity datasetFetcher--><polygon fill="#87CEFA" filter="url(#f1smoweqncmxb1)" points="366,244,376,234,460,234,460,286.5938,450,296.5938,366,296.5938,366,244" style="stroke:#00008B;stroke-width:1.5;"/><line style="stroke:#00008B;stroke-width:1.5;" x1="450" x2="460" y1="244" y2="234"/><line style="stroke:#00008B;stroke-width:1.5;" x1="366" x2="450" y1="244" y2="244"/><line style="stroke:#00008B;stroke-width:1.5;" x1="450" x2="450" y1="244" y2="296.5938"/><text fill="#000000" font-family="sans-serif" font-size="14" lengthAdjust="spacing" textLength="54" x="381" y="266.9951">Dataset</text><text fill="#000000" font-family="sans-serif" font-size="14" lengthAdjust="spacing" textLength="53" x="381" y="283.292">Fetcher</text><!--MD5=[85366ae34dbfbe3c2c688dc36f53c476]
entity schemaMapper--><polygon fill="#87CEFA" filter="url(#f1smoweqncmxb1)" points="495,244,505,234,659,234,659,286.5938,649,296.5938,495,296.5938,495,244" style="stroke:#00008B;stroke-width:1.5;"/><line style="stroke:#00008B;stroke-width:1.5;" x1="649" x2="659" y1="244" y2="234"/><line style="stroke:#00008B;stroke-width:1.5;" x1="495" x2="649" y1="244" y2="244"/><line style="stroke:#00008B;stroke-width:1.5;" x1="649" x2="649" y1="244" y2="296.5938"/><text fill="#000000" font-family="sans-serif" font-size="14" lengthAdjust="spacing" textLength="124" x="510" y="266.9951">Schema.org→ARC</text><text fill="#000000" font-family="sans-serif" font-size="14" lengthAdjust="spacing" textLength="100" x="510" y="283.292">Mapper (arctrl)</text><!--MD5=[e2307af040e3f87d22824e7603ca28ec]
entity api--><polygon fill="#FFFFFF" filter="url(#f1smoweqncmxb1)" points="1159.5,52,1169.5,42,1302.5,42,1302.5,94.5938,1292.5,104.5938,1159.5,104.5938,1159.5,52" style="stroke:#808080;stroke-width:1.5;"/><line style="stroke:#808080;stroke-width:1.5;" x1="1292.5" x2="1302.5" y1="52" y2="42"/><line style="stroke:#808080;stroke-width:1.5;" x1="1159.5" x2="1292.5" y1="52" y2="52"/><line style="stroke:#808080;stroke-width:1.5;" x1="1292.5" x2="1292.5" y1="52" y2="104.5938"/><text fill="#000000" font-family="sans-serif" font-size="14" lengthAdjust="spacing" textLength="61" x="1174.5" y="74.9951">FAIRagro</text><text fill="#000000" font-family="sans-serif" font-size="14" lengthAdjust="spacing" textLength="103" x="1174.5" y="91.292">Middleware API</text><!--MD5=[44937ce116c136507c4e154b1b6ce078]
link orchestrator to inspirePlugin--><path d="M822.52,91.1 C909.26,114.33 1056.01,155.83 1073,175 C1076.3188,178.7438 1079.1084,182.9213 1081.449,187.3691 C1082.0342,188.481 1082.5912,189.6099 1083.1215,190.7531 " fill="none" id="orchestrator-to-inspirePlugin" style="stroke:#A80036;stroke-width:1.0;"/><polygon fill="#A80036" points="1083.1215,190.7531,1082.9632,180.9055,1081.0176,186.2173,1075.7059,184.2717,1083.1215,190.7531" style="stroke:#A80036;stroke-width:1.0;"/><text fill="#000000" font-family="sans-serif" font-size="13" lengthAdjust="spacing" textLength="68" x="1059" y="155.5669">instantiate</text><!--MD5=[faef164186f3588790cfb9c885134e6a]
link orchestrator to schemaOrgPlugin--><path d="M751.42,96.67 C742.98,121.335 728.9375,162.3775 716.8525,197.7 C713.8313,206.5306 710.9323,215.0038 708.2739,222.7741 C706.9447,226.6593 705.6756,230.3688 704.4814,233.8594 C703.8843,235.6047 703.3059,237.2953 702.748,238.9258 C702.6086,239.3334 702.4704,239.7373 702.3336,240.1373 C702.2651,240.3373 702.197,240.5364 702.1293,240.7345 " fill="none" id="orchestrator-to-schemaOrgPlugin" style="stroke:#A80036;stroke-width:1.0;"/><polygon fill="#A80036" points="702.1293,240.7345,708.8272,233.5138,703.7478,236.0037,701.2579,230.9242,702.1293,240.7345" style="stroke:#A80036;stroke-width:1.0;"/><text fill="#000000" font-family="sans-serif" font-size="13" lengthAdjust="spacing" textLength="68" x="738" y="155.5669">instantiate</text><!--MD5=[f53a655a4bca2fc6f9e4d2179839029f]
link cswClient to csw--><path d="M848.53,297.23 C862.05,311.88 880.12,328.11 900,337 C935.05,352.66 948.23,338.12 986,345 C1052.19,357.05 1071.8,354.95 1132,385 C1152.64,395.3 1173.18,410.43 1189.86,424.28 " fill="none" id="cswClient-to-csw" style="stroke:#A80036;stroke-width:1.0;"/><polygon fill="#A80036" points="1194.01,427.77,1189.6891,418.9196,1190.1806,424.555,1184.5452,425.0466,1194.01,427.77" style="stroke:#A80036;stroke-width:1.0;"/><text fill="#000000" font-family="sans-serif" font-size="13" lengthAdjust="spacing" textLength="74" x="1116" y="358.0669">GetRecords</text><text fill="#000000" font-family="sans-serif" font-size="13" lengthAdjust="spacing" textLength="66" x="1120" y="373.1997">ISO 19139</text><!--MD5=[df0b32c963da60ad4915ffc4306a18c9]
link sitemapDiscovery to niceHttp--><path d="M285.35,297.35 C294.6,331.5 309.49,386.47 319.26,422.55 " fill="none" id="sitemapDiscovery-to-niceHttp" style="stroke:#A80036;stroke-width:1.0;"/><polygon fill="#A80036" points="320.67,427.73,322.1659,417.9954,319.3568,422.9055,314.4467,420.0965,320.67,427.73" style="stroke:#A80036;stroke-width:1.0;"/><!--MD5=[fb70db2406ceba04d242c73fe43e7f44]
link datasetFetcher to niceHttp--><path d="M399.5,297.35 C384.5,331.64 360.31,386.92 344.54,422.99 " fill="none" id="datasetFetcher-to-niceHttp" style="stroke:#A80036;stroke-width:1.0;"/><polygon fill="#A80036" points="342.46,427.73,349.7244,421.0795,344.4588,423.1469,342.3915,417.8814,342.46,427.73" style="stroke:#A80036;stroke-width:1.0;"/><!--MD5=[aad93fdf3f9c4d471c442c697e829071]
link niceHttp to sitemap--><path d="M323.95,491.16 C318.45,524.53 309.74,577.4 304.48,609.33 " fill="none" id="niceHttp-to-sitemap" style="stroke:#A80036;stroke-width:1.0;"/><polygon fill="#A80036" points="303.66,614.27,309.0736,606.0424,304.475,609.3369,301.1806,604.7383,303.66,614.27" style="stroke:#A80036;stroke-width:1.0;"/><text fill="#000000" font-family="sans-serif" font-size="13" lengthAdjust="spacing" textLength="61" x="318" y="543.5669">HTTP GET</text><!--MD5=[081dca1be58e5a1b0b71c59dc339d331]
link niceHttp to mycoreSolr--><path d="M359.81,491.02 C369.24,500.9 379.38,512.13 388,523 C407.81,547.99 427.58,578.18 441.85,601.15 " fill="none" id="niceHttp-to-mycoreSolr" style="stroke:#A80036;stroke-width:1.0;"/><polygon fill="#A80036" points="444.63,605.64,443.2905,595.8827,441.9967,601.3896,436.4898,600.0959,444.63,605.64" style="stroke:#A80036;stroke-width:1.0;"/><text fill="#000000" font-family="sans-serif" font-size="13" lengthAdjust="spacing" textLength="61" x="411" y="543.5669">HTTP GET</text><!--MD5=[132287cedbbd1e9a8a13940f037190c8]
reverse link schemaOrgDataset to niceHttp--><path d="M107.76,600.8 C106.86,576.2 109.95,544.23 128,523 C160.31,485 215.31,469.75 259.62,463.8 " fill="none" id="schemaOrgDataset-backto-niceHttp" style="stroke:#A80036;stroke-width:1.0;"/><polygon fill="#A80036" points="108.01,605.93,111.5687,596.7465,107.7674,600.9359,103.5781,597.1347,108.01,605.93" style="stroke:#A80036;stroke-width:1.0;"/><text fill="#000000" font-family="sans-serif" font-size="13" lengthAdjust="spacing" textLength="61" x="186" y="536.0669">HTTP GET</text><text fill="#000000" font-family="sans-serif" font-size="13" lengthAdjust="spacing" textLength="175" x="129" y="551.1997">(robots.txt, retry, rate limit)</text><!--MD5=[9ff4e5f9e30fa150afb468d585270640]
link cswClient to inspireMapper--><path d="M881.62,265.5 C891.55,265.5 901.49,265.5 911.42,265.5 " fill="none" id="cswClient-to-inspireMapper" style="stroke:#A80036;stroke-width:1.0;"/><polygon fill="#A80036" points="916.61,265.5,907.61,261.5,911.61,265.5,907.61,269.5,916.61,265.5" style="stroke:#A80036;stroke-width:1.0;"/><!--MD5=[0c9d06f4a809f2fa80af1f1600266a95]
link sitemapDiscovery to datasetFetcher--><path d="M330.66,265.5 C340.61,265.5 350.56,265.5 360.51,265.5 " fill="none" id="sitemapDiscovery-to-datasetFetcher" style="stroke:#A80036;stroke-width:1.0;"/><polygon fill="#A80036" points="365.72,265.5,356.72,261.5,360.72,265.5,356.72,269.5,365.72,265.5" style="stroke:#A80036;stroke-width:1.0;"/><!--MD5=[a05310636d9d8549429859ff0d511645]
link datasetFetcher to schemaMapper--><path d="M460.09,265.5 C469.94,265.5 479.79,265.5 489.64,265.5 " fill="none" id="datasetFetcher-to-schemaMapper" style="stroke:#A80036;stroke-width:1.0;"/><polygon fill="#A80036" points="494.79,265.5,485.79,261.5,489.79,265.5,485.79,269.5,494.79,265.5" style="stroke:#A80036;stroke-width:1.0;"/><!--MD5=[31d78ca56c215fcc42502ba3aeed10e8]
reverse link orchestrator to inspireMapper--><path d="M797.2,99.32 C826.11,118.71 866.29,146.99 899,175 C920.35,193.29 942.53,215.87 959.28,233.78 " fill="none" id="orchestrator-backto-inspireMapper" style="stroke:#A80036;stroke-width:1.0;"/><polygon fill="#A80036" points="793.02,96.52,798.2699,104.853,797.1737,99.3034,802.7233,98.2072,793.02,96.52" style="stroke:#A80036;stroke-width:1.0;"/><text fill="#000000" font-family="sans-serif" font-size="13" lengthAdjust="spacing" textLength="58" x="889" y="148.0669">RO-Crate</text><text fill="#000000" font-family="sans-serif" font-size="13" lengthAdjust="spacing" textLength="54" x="891" y="163.1997">JSON-LD</text><!--MD5=[8bd6312ecaea78b4115e2a6fff2d4c91]
reverse link orchestrator to schemaMapper--><path d="M708.9,99.2 C692.18,108.91 674.21,121.09 660,135 C630.23,164.14 605.92,205.85 591.47,234 " fill="none" id="orchestrator-backto-schemaMapper" style="stroke:#A80036;stroke-width:1.0;"/><polygon fill="#A80036" points="713.58,96.52,703.7834,97.5331,709.2441,99.0099,707.7673,104.4706,713.58,96.52" style="stroke:#A80036;stroke-width:1.0;"/><text fill="#000000" font-family="sans-serif" font-size="13" lengthAdjust="spacing" textLength="58" x="661" y="148.0669">RO-Crate</text><text fill="#000000" font-family="sans-serif" font-size="13" lengthAdjust="spacing" textLength="54" x="663" y="163.1997">JSON-LD</text><!--MD5=[0b1a228e25f869fcaad8a4316b5b7991]
link orchestrator to apiClient--><path d="M822.64,73.5 C850.78,73.5 883.8,73.5 911.98,73.5 " fill="none" id="orchestrator-to-apiClient" style="stroke:#A80036;stroke-width:1.0;"/><polygon fill="#A80036" points="917.19,73.5,908.19,69.5,912.19,73.5,908.19,77.5,917.19,73.5" style="stroke:#A80036;stroke-width:1.0;"/><text fill="#000000" font-family="sans-serif" font-size="13" lengthAdjust="spacing" textLength="58" x="841" y="51.5669">RO-Crate</text><text fill="#000000" font-family="sans-serif" font-size="13" lengthAdjust="spacing" textLength="54" x="843" y="66.6997">JSON-LD</text><!--MD5=[a3f91cad17030b326f1df498b5030f6b]
link apiClient to api--><path d="M1034.5,73.5 C1069.96,73.5 1115.62,73.5 1153.99,73.5 " fill="none" id="apiClient-to-api" style="stroke:#A80036;stroke-width:1.0;"/><polygon fill="#A80036" points="1159.11,73.5,1150.11,69.5,1154.11,73.5,1150.11,77.5,1159.11,73.5" style="stroke:#A80036;stroke-width:1.0;"/><text fill="#000000" font-family="sans-serif" font-size="13" lengthAdjust="spacing" textLength="88" x="1053" y="51.5669">POST /v3/arcs</text><text fill="#000000" font-family="sans-serif" font-size="13" lengthAdjust="spacing" textLength="46" x="1074" y="66.6997">(mTLS)</text><!--MD5=[8922db0f0eda8678efa5bb26e8319fe1]
@startuml HarvesterArchitecture
skinparam packageStyle rectangle
skinparam rectangle<<dashedRect>> {
    BorderStyle dashed
}
skinparam node<<internal>> {
    BackgroundColor LightSkyBlue
    BorderColor DarkBlue
    FontColor Black
}
skinparam node<<internal-dashed>> {
    BackgroundColor LightSkyBlue
    BorderColor DarkBlue
    FontColor Black
    BorderStyle dashed
}
skinparam node<<external>> {
    BackgroundColor White
    BorderColor Gray
    FontColor Black
}
hide stereotype

package "INSPIRE-based RDIs" as geoCatalogues {
    node "CSW 2.0.2\nendpoint" as csw <<external>>
}

package "Schema.org-based RDIs" as schemaPortals {
    node "XML Sitemap" as sitemap <<external>>
    node "MyCoRe Solr\nendpoint" as mycoreSolr <<external>>
    node "HTML-embedded\nschema.org dataset" as schemaOrgDataset <<external>>
}

package "Middleware Harvester" as harvesterPkg {
    node "Orchestrator" as orchestrator <<internal>>
    node "ApiClient\n(shared lib)" as apiClient <<internal-dashed>>
    node "NiceHttpClient\n(shared lib)" as niceHttp <<internal-dashed>>

    rectangle "Inspire Plugin" as inspirePlugin <<dashedRect>> {
        node "CSW Client\n(OWSLib)" as cswClient <<internal>>
        node "INSPIRE→ARC\nMapper (arctrl)" as inspireMapper <<internal>>
    }

    rectangle "Schema.org Plugin" as schemaOrgPlugin <<dashedRect>> {
        node "Sitemap\nDiscovery" as sitemapDiscovery <<internal>>
        node "Dataset\nFetcher" as datasetFetcher <<internal>>
        node "Schema.org→ARC\nMapper (arctrl)" as schemaMapper <<internal>>
    }
}

node "FAIRagro\nMiddleware API" as api <<external>>

orchestrator - -> inspirePlugin : instantiate
orchestrator - -> schemaOrgPlugin : instantiate
cswClient -down-> csw : GetRecords\nISO 19139
sitemapDiscovery -down-> niceHttp
datasetFetcher -down-> niceHttp
niceHttp -down-> sitemap : HTTP GET
niceHttp -down-> mycoreSolr : HTTP GET
niceHttp -left-> schemaOrgDataset : HTTP GET\n(robots.txt, retry, rate limit)
cswClient -right-> inspireMapper
sitemapDiscovery -right-> datasetFetcher
datasetFetcher -right-> schemaMapper
inspireMapper -up-> orchestrator : RO-Crate\nJSON-LD
schemaMapper -up-> orchestrator : RO-Crate\nJSON-LD
orchestrator -right-> apiClient : RO-Crate\nJSON-LD
apiClient -right-> api : POST /v3/arcs\n(mTLS)

@enduml

PlantUML version 1.2021.00(Sun Jan 10 10:25:05 UTC 2021)
(MIT source distribution)
Java Runtime: OpenJDK Runtime Environment
JVM: OpenJDK 64-Bit Server VM
Default Encoding: UTF-8
Language: en
Country: US
--></g></svg>